<svg xmlns="http://www.w3.org/2000/svg" data-name="Layer 1" viewBox="0 0 10 12.5" x="0px" y="0px"><title>KAMASUTRA</title><path d="M4.43982,4.80422a.27879.27879,0,0,1-.21311.04566c-.08462-.00156-.1704-.01087-.25434-.02046a.47985.47985,0,0,1-.23073-.0763.42774.42774,0,0,1-.14986-.18365,1.12846,1.12846,0,0,1-.059-.25368,1.39141,1.39141,0,0,1-.023-.25273,1.03737,1.03737,0,0,1,.052-.22653.84029.84029,0,0,0,.03135-.214c.00037-.01673-.02629-.01973-.02766-.00262-.011.13677-.12086.25141-.14947.38563a1.26706,1.26706,0,0,0,.05586.44806.59226.59226,0,0,0,.04645.213.496.496,0,0,0,.14867.14457,1.48956,1.48956,0,0,0,.18282.09794c.03762.00279.07636-.00218.11422-.00073.04339.00166.08663.00508.12993.00822a.40668.40668,0,0,0,.3681-.09274C4.47275,4.81122,4.45245,4.79288,4.43982,4.80422Z"/><path d="M5.42952,4.414c-.00138-.03-.04875-.03732-.06746-.01608a.8023.8023,0,0,0-.09752.19144c-.03243.06725-.0654.134-.10279.19929a2.38613,2.38613,0,0,1-.25605.36454.57889.57889,0,0,1-.33187.22363A.40033.40033,0,0,1,4.251,5.27863a.01073.01073,0,0,0-.01694.00856c.003.09634.04093.16718.189.19559a.5243.5243,0,0,0,.503-.19845,4.88049,4.88049,0,0,0,.30511-.40458,2.30565,2.30565,0,0,0,.12334-.22945A.55881.55881,0,0,0,5.42952,4.414Z"/><path d="M4.98954,6.818A1.2046,1.2046,0,0,0,4.965,6.67869c-.01478-.04615-.03289-.09126-.04748-.13754A2.7261,2.7261,0,0,1,4.84349,6.242c-.03851-.198-.0443-.40029-.08188-.59829a.01021.01021,0,0,0-.02015.00058,2.9931,2.9931,0,0,0,.01561.62022,1.87066,1.87066,0,0,0,.05552.29855A1.17763,1.17763,0,0,0,4.86,6.70805a.48489.48489,0,0,0,.09339.12615A.02069.02069,0,0,0,4.98954,6.818Z"/><path d="M5.516,8.06108c-.03779-.13478-.081-.26618-.13109-.397-.0522-.13635-.099-.27483-.14872-.4121A1.72479,1.72479,0,0,0,5.061,6.86887c-.00932-.01387-.02883-.00166-.02751.01233a1.70436,1.70436,0,0,0,.10617.40273c.04737.13463.09813.26828.14309.40372.04277.12885.09273.25424.13949.38154.047.12789.06787.26332.10729.3935.0071.02344.04029.01317.04336-.00693A.92746.92746,0,0,0,5.516,8.06108Z"/><path d="M5.50877,8.52871A1.94124,1.94124,0,0,0,5.404,8.693a.21836.21836,0,0,0-.05637.15018.02368.02368,0,0,0,.03276.01784A.22215.22215,0,0,0,5.468,8.72683c.02115-.06141.05757-.11777.07433-.18036A.01926.01926,0,0,0,5.50877,8.52871Z"/><path d="M5.88342,8.20264a.0339.0339,0,0,0-.05921.02653.73387.73387,0,0,1-.01426.193c-.00687.03771-.01417.07513-.01912.11317-.00464.03566-.00294.072-.0091.10713a.26579.26579,0,0,1-.04086.10286.22731.22731,0,0,1-.06312.05336.6066.6066,0,0,1-.19222.07276.01245.01245,0,0,0,.00069.02286.45534.45534,0,0,0,.22816-.0195.156.156,0,0,0,.11725-.15942C5.84213,8.55637,6.00419,8.35575,5.88342,8.20264Z"/><path d="M5.57186,4.77843c-.002-.05023-.01181-.09974-.009-.15014C5.56369,4.6142,5.54184,4.612,5.541,4.6261c-.00506.08969-.03458.18052-.04705.26995-.0126.0903-.02348.18081-.03375.27141q-.02973.262-.07251.52232a1.58329,1.58329,0,0,0,.0091.97626A.0198.0198,0,0,0,5.43432,6.655a2.99022,2.99022,0,0,1,.05489-.98445c.02657-.17036.04968-.34154.06674-.51313.00839-.08434.01409-.1688.0164-.25352C5.5735,4.86219,5.57351,4.82013,5.57186,4.77843Z"/><path d="M5.79166,7.92081c-.00818-.06676-.00975-.13437-.01475-.20142-.00979-.13133-.01333-.26318-.02855-.39408a.79949.79949,0,0,0-.27317-.60006c-.01135-.00729-.02955.00443-.02209.01807a1.75853,1.75853,0,0,1,.13714.2955,1.58837,1.58837,0,0,1,.066.34147c.01215.127.0156.25463.02756.38164a1.50605,1.50605,0,0,0,.03426.189.39028.39028,0,0,0,.06445.16418.01716.01716,0,0,0,.03-.00906A.99417.99417,0,0,0,5.79166,7.92081Z"/><path d="M5.24376,6.71444a.24327.24327,0,0,0-.01508-.1065.01251.01251,0,0,0-.02137-.00214.21015.21015,0,0,0-.03243.11.2366.2366,0,0,0,.00754.12143.02847.02847,0,0,0,.05215-.00158A.30648.30648,0,0,0,5.24376,6.71444Z"/><path d="M3.8155,6.60834A1.2046,1.2046,0,0,0,3.81943,6.467c-.00523-.04817-.01392-.096-.01893-.14426a2.7261,2.7261,0,0,1-.01257-.3079c.002-.20167.03688-.401.03977-.60256a.01021.01021,0,0,0-.01986-.00348,2.9931,2.9931,0,0,0-.10909.61076,1.87066,1.87066,0,0,0-.00548.30362,1.17763,1.17763,0,0,0,.01737.15151.48489.48489,0,0,0,.06619.14232A.02069.02069,0,0,0,3.8155,6.60834Z"/><path d="M3.95566,7.95137c.00367-.13993.00115-.27824-.00809-.418-.00964-.14568-.01344-.29179-.02047-.43763A1.72479,1.72479,0,0,0,3.87274,6.678c-.00481-.016-.02706-.0101-.02993.00366a1.70436,1.70436,0,0,0-.01742.41613c.00553.14261.01458.28529.01756.428.00284.13573.01356.27028.02067.40572.00714.13605-.01287.27162-.01363.40764-.00014.02449.03461.02447.04347.00617A.92746.92746,0,0,0,3.95566,7.95137Z"/><path d="M3.85692,8.42954a1.94124,1.94124,0,0,0-.12556.149.21836.21836,0,0,0-.07576.1414.02368.02368,0,0,0,.03011.022.22215.22215,0,0,0,.10461-.12143c.02909-.05806.07265-.10911.09756-.16893A.01926.01926,0,0,0,3.85692,8.42954Z"/><path d="M4.27144,8.15594a.0339.0339,0,0,0-.0622.01846.73387.73387,0,0,1-.03968.18939c-.0118.03647-.024.07259-.03393.10964-.00932.03473-.01245.071-.02321.105a.26579.26579,0,0,1-.05412.09655.22731.22731,0,0,1-.06962.04453.6066.6066,0,0,1-.20016.04667.01245.01245,0,0,0-.00234.02275.45534.45534,0,0,0,.22873.01088.156.156,0,0,0,.13732-.14249C4.18368,8.50109,4.37088,8.32369,4.27144,8.15594Z"/><path d="M4.54544,5.41081q-.042.111-.08651.22109a1.58329,1.58329,0,0,0-.20536.95446.0198.0198,0,0,0,.039-.00256,2.99023,2.99023,0,0,1,.26959-.94841q.05473-.13865.10572-.27889A.49643.49643,0,0,1,4.54544,5.41081Z"/><path d="M4.2604,7.8987c.01189-.0662.03034-.13126.04536-.1968.02941-.12837.06494-.25539.089-.385a.79949.79949,0,0,0-.0839-.654c-.0087-.01031-.02954-.00449-.02644.01075a1.75853,1.75853,0,0,1,.04381.32281,1.58837,1.58837,0,0,1-.03772.34574c-.02587.12492-.06025.24789-.0863.37277a1.50605,1.50605,0,0,0-.023.19068.39028.39028,0,0,0,.01312.17589.01716.01716,0,0,0,.03137.0002A.99417.99417,0,0,0,4.2604,7.8987Z"/><path d="M4.18111,4.36837a.4347.4347,0,0,0-.21631.04323.51523.51523,0,0,0-.09394.05338l-.02683.021a.38465.38465,0,0,1-.0226-.07254c-.01279-.04033-.02845-.08036-.04406-.11964-.03284-.08265-.07945-.15691-.11758-.23694-.00577-.01211-.02694-.00718-.02349.00693.02653.10837.04285.21538.08.32127a.34431.34431,0,0,0,.06862.13776.034.034,0,0,1-.024.00108c-.01178-.00506-.01834.01322-.0069.01854.03205.01492.04679.035.08594.0256a.43683.43683,0,0,0,.10524-.05985c.07728-.04342.1678-.05.24321-.09434A.024.024,0,0,0,4.18111,4.36837Z"/><path d="M4.46067,4.64a.5205.5205,0,0,0-.22744-.06059q-.02791-.00218-.05591-.00307c-.01372-.00043-.05473.00691-.06572.00007L4.10851,4.582l.00868-.02878a.18221.18221,0,0,1,.02451-.06482c.00841-.01043-.00784-.02606-.0175-.01632-.03177.032-.074.0476-.08878.095a.06168.06168,0,0,0,.04307.08319.40954.40954,0,0,0,.08189.002q.04667.0012.09313.00583a1.78044,1.78044,0,0,0,.19456.01567C4.46432,4.67357,4.47872,4.65018,4.46067,4.64Z"/><path d="M4.4046,4.72821c-.02766.003-.05529.00528-.08285.00922a.406.406,0,0,1-.09216.01011.00853.00853,0,0,0-.0017.017c.03136.00271.0618.012.09351.01169a.26824.26824,0,0,0,.09165-.01931C4.4297,4.75072,4.42091,4.72645,4.4046,4.72821Z"/><path d="M4.82418,4.29838c.02031-.04526.04364-.08831.06679-.13213a1.37935,1.37935,0,0,0,.06433-.15634c.00493-.01285-.01205-.02019-.02022-.01068a1.64075,1.64075,0,0,0-.17988.24351l.00113-.01444c.00767-.10443.01942-.2085.02362-.31316a1.33141,1.33141,0,0,0-.00116-.142c-.00383-.05725-.02121-.11-.02882-.16613-.00211-.01557-.02518-.01155-.02385.00377a.8438.8438,0,0,1-.01683.17367c-.0073.0564-.01582.11268-.025.1688a2.73079,2.73079,0,0,0-.03971.33054.374.374,0,0,0,.05208.24633c.05215.0695.13476.08587.203.13142.017.01138.04741-.00249.0411-.02552-.02171-.07922-.08109-.09938-.13778-.14909a.13367.13367,0,0,1-.03313-.04539l.00062-.00139C4.79011,4.39355,4.80332,4.34486,4.82418,4.29838Z"/><path d="M6.27647,3.78785A.431.431,0,0,1,5.9044,3.771c-.1355-.05395-.233-.16329-.36341-.224a.661.661,0,0,0-.16779-.04006.60273.60273,0,0,0-.17328-.00782.43459.43459,0,0,0-.17088.05743.58507.58507,0,0,0-.12921.12392c-.00792.00848.00228.02243.01184.01447a.51486.51486,0,0,1,.17584-.07605.846.846,0,0,1,.18289-.0359.3491.3491,0,0,1,.185.0323.81841.81841,0,0,1,.166.1045,1.18,1.18,0,0,0,.1434.0983c-.01406.0415-.0156.089-.02874.13069a.75838.75838,0,0,1-.06331.14867.58079.58079,0,0,1-.09851.127c-.0151.01468-.03683.04091-.05892.04518-.02523.00488-.05926-.02321-.08069-.03505A1.96708,1.96708,0,0,1,5.167,4.05336c-.0437-.03457-.08394-.07352-.125-.11118-.04282-.03931-.09134-.07068-.13574-.108-.012-.01008-.027.00786-.01816.01948a1.85163,1.85163,0,0,0,.12219.15931c.04463.04722.09193.0924.13955.13659a.76556.76556,0,0,0,.33972.20037c.11748.02407.21212-.11654.26211-.20621a.57553.57553,0,0,0,.06355-.16853A.45438.45438,0,0,0,5.8275,3.8511a.78545.78545,0,0,0,.17743.06016c.10613.02219.25854.029.30786-.08921C6.32123,3.80183,6.29692,3.77614,6.27647,3.78785Z"/><path d="M5.0515,3.14873a.51671.51671,0,0,0-.11018.02968.253.253,0,0,0-.10463.05309.38063.38063,0,0,0-.06633.1182.91873.91873,0,0,0-.07046.15634c-.002.00782.00548.0186.01437.01353a.4004.4004,0,0,0,.10457-.09521A.43146.43146,0,0,0,4.86473,3.36a.24278.24278,0,0,1,.039-.06579c.05315-.048.1598-.03159.17552-.1193A.02435.02435,0,0,0,5.0515,3.14873Z"/><path d="M6.97815,1.47963a.02123.02123,0,0,0-.04056-.00406c-.01246.03117-.03207.05735-.04605.08777a.36372.36372,0,0,1-.065.0957,1.55333,1.55333,0,0,1-.18293.14385,1.69335,1.69335,0,0,0-.30068.36562,4.96875,4.96875,0,0,1-.61783.72492c-.07962-.0895-.20532-.09235-.3166-.13259a.42309.42309,0,0,1-.0923-.04605.10533.10533,0,0,1-.05822-.088,1.48,1.48,0,0,1-.00944-.23319.12969.12969,0,0,0,.02376-.12077.02313.02313,0,0,0-.03557-.00848c-.04486.03745-.06892.09443-.11238.13427-.05529.05067-.129.04793-.19446.075a.01663.01663,0,0,0,.00092.03044.30147.30147,0,0,0,.271-.06305,1.10234,1.10234,0,0,0-.03935.18856A.16666.16666,0,0,0,5.274,2.81c.06983.0294.1463.04036.21608.06865.0557.02258.1118.04939.16608.07721a1.62548,1.62548,0,0,1-.16745.12723q-.05633.03705-.11422.07153a.23156.23156,0,0,0-.04495.032c-.03609-.02449-.071-.05162-.10924-.07738A.42523.42523,0,0,0,4.93173,3.027a.0125.0125,0,0,0-.00521.02227.62283.62283,0,0,0,.13178.06439.71874.71874,0,0,1,.13255.07936.74289.74289,0,0,0,.24894.14534,2.1329,2.1329,0,0,0,.26613.04823.76338.76338,0,0,1,.12892.02823.92537.92537,0,0,1,.13278.04422c.02435.01255.04719-.02341.03038-.04251a.28765.28765,0,0,0-.10159-.08614.60037.60037,0,0,0-.12994-.03379c-.09571-.01657-.19462-.01489-.28892-.03894a.381.381,0,0,1-.063-.02231.72928.72928,0,0,0,.09721-.04873,1.187,1.187,0,0,0,.19751-.1373,3.24447,3.24447,0,0,0,.35021-.367,4.18,4.18,0,0,0,.32334-.41858,1.59,1.59,0,0,1,.321-.40116,1.56337,1.56337,0,0,0,.19784-.17283.42118.42118,0,0,0,.06849-.09726A.18677.18677,0,0,0,6.97815,1.47963Z"/><path d="M4.94977,3.38368c-.00855.00926-.02487.01245-.03569.01963-.0133.00882-.02627.01887-.03912.02835a.14585.14585,0,0,0-.05147.07747c-.01227.03332.02563.05292.0515.03681a.16242.16242,0,0,0,.03685-.02536A.146.146,0,0,0,4.93767,3.482l.01528-.03407a.35138.35138,0,0,1,.01743-.04968C4.98014,3.38469,4.96046,3.37211,4.94977,3.38368Z"/><path d="M7.04218,1.56163c-.00147-.00723-.01309-.00973-.01537-.00154a1.33168,1.33168,0,0,1-.10512.26726,2.082,2.082,0,0,0-.1205.21767,1.39792,1.39792,0,0,0-.0332.219.07328.07328,0,0,1-.07661.06434c-.03827.001-.07452-.00114-.113.00291a.03066.03066,0,0,0-.0128.05473.19839.19839,0,0,0,.24032.00944c.07657-.05932.06717-.15658.07514-.24261a.91172.91172,0,0,1,.12688-.27993A.50648.50648,0,0,0,7.04218,1.56163Z"/><path d="M6.49126,2.48815c-.02058.04456-.05678.08191-.08085.125-.01715.03073-.032.06279-.04754.09435a1.42821,1.42821,0,0,1-.12089.21136c-.0455.06271-.09336.12317-.14472.18119l-.07184.08036c-.02591.02893-.05717.053-.05865.094a.0391.0391,0,0,0,.04434.04188.08853.08853,0,0,0,.05032-.02568c.05965.131.14672.24857.204.38036.00517.0119.026.00658.02245-.00662a1.60937,1.60937,0,0,0-.15551-.45164l.048-.05382a1.19086,1.19086,0,0,0,.1448-.192,2.07618,2.07618,0,0,0,.10022-.21555c.01745-.04126.03686-.08233.051-.12489a1.3,1.3,0,0,1,.037-.13007C6.51966,2.48252,6.4976,2.47443,6.49126,2.48815Z"/><path d="M4.60553,1.9577a.12647.12647,0,0,0-.05676-.08342.30287.30287,0,0,0-.08823-.0361,1.02809,1.02809,0,0,0-.25565-.025.43884.43884,0,0,0-.3713.19648.78789.78789,0,0,0-.13621.4117,1.70459,1.70459,0,0,0,.008.26174.419.419,0,0,0-.12084.29338c-.00231.12712.02336.25266.02744.37921.00038.01188.01995.01109.0207-.00059.00747-.11667.02749-.234.0395-.35054a.5356.5356,0,0,1,.04-.16l.00859-.0191.00077.00618a.93412.93412,0,0,1,.02189.164c-.00074.01545.02289.018.024.0024.00318-.04382.01673-.08729.02265-.131a1.09079,1.09079,0,0,0,.00777-.113c.00247-.0788.00224-.15766.00565-.23642a.87766.87766,0,0,1,.08586-.38318.42636.42636,0,0,1,.26456-.217.34786.34786,0,0,1,.08718-.01318l-.0165.01173a.419.419,0,0,0-.11486.13509.70735.70735,0,0,0-.06858.18955.69849.69849,0,0,0-.01469.08976c-.00366.03915.00529.07951-.00076.118-.00258.01642.02308.01892.02565.00257a.60026.60026,0,0,1,.036-.09725c.00977-.02834.01835-.05706.02839-.08533a.76478.76478,0,0,1,.0757-.15943.71842.71842,0,0,1,.08922-.11263c.02906-.03.06665-.04919.09739-.07566l.02056.005a.4299.4299,0,0,1,.07915.02514.28015.28015,0,0,1,.06913.043A.03488.03488,0,0,0,4.60553,1.9577Z"/><path d="M4.8,2.92745a.50818.50818,0,0,0-.07569-.04865.94512.94512,0,0,0,.10109-.40307,1.02223,1.02223,0,0,0-.03216-.26628.451.451,0,0,0-.04359-.11374.4746.4746,0,0,0-.07953-.08733c-.01034-.011-.02869.00385-.01827.01494a.29353.29353,0,0,1,.04751.11177.67708.67708,0,0,1,.02029.10231.98372.98372,0,0,1-.004.24535,1.12559,1.12559,0,0,1-.14626.42951c-.07479.12745-.16421.24566-.238.37378a1.0601,1.0601,0,0,0-.14148.42247,1.72123,1.72123,0,0,0-.0096.2613c.002.04493.00657.08982.00677.13482a1.13324,1.13324,0,0,0-.00267.13489.0334.0334,0,0,0,.05965.01395.36573.36573,0,0,0,.026-.22416,1.1111,1.1111,0,0,1,.00418-.24952,1.30568,1.30568,0,0,1,.18507-.45417c.07108-.11723.14975-.23194.21589-.35149a.453.453,0,0,0,.08237.03359.13128.13128,0,0,0,.091.00428.01346.01346,0,0,0,.00767-.01409A.13347.13347,0,0,0,4.8,2.92745Z"/><path d="M4.37154,2.87869a3.02067,3.02067,0,0,0-.20436.29606,1.677,1.677,0,0,0-.13071.32133,1.08536,1.08536,0,0,0-.04893.33107.67506.67506,0,0,0,.025.17237,1.359,1.359,0,0,0,.06753.15065c.00656.01522.028.0049.02308-.01022a.65178.65178,0,0,1-.017-.16974A1.4885,1.4885,0,0,1,4.089,3.80673a1.25264,1.25264,0,0,1,.06272-.31516,2.58632,2.58632,0,0,1,.12567-.28911c.04748-.09945.08579-.20412.13449-.30247C4.42353,2.87636,4.38615,2.85774,4.37154,2.87869Z"/><path d="M4.58638,2.22065a1.45927,1.45927,0,0,0-.0831-.18562c-.00642-.01511-.02854-.00489-.02308.01022a.64057.64057,0,0,1,.01823.1918,1.228,1.228,0,0,1-.00629.174,1.13826,1.13826,0,0,1-.031.16582.423.423,0,0,0-.03523.16477.03415.03415,0,0,0,.04719.0257.24536.24536,0,0,0,.097-.14994.72549.72549,0,0,0,.01624-.39678Z"/><path d="M4.32288,2.27174c-.11711.29535-.25013.58416-.38168.87317a1.85321,1.85321,0,0,0-.14254.43467.88187.88187,0,0,0-.01725.212.60749.60749,0,0,0,.06239.21434.0239.0239,0,0,0,.04527-.01335,1.08945,1.08945,0,0,1-.00425-.222,1.03971,1.03971,0,0,1,.03013-.2202,2.55443,2.55443,0,0,1,.16492-.41368,3.64606,3.64606,0,0,0,.17025-.42107c.04491-.14246.06707-.29215.09925-.43777C4.35282,2.26229,4.32843,2.25775,4.32288,2.27174Z"/><path d="M3.93474,2.58087a4.501,4.501,0,0,1-.1622.49457,1.02341,1.02341,0,0,0-.05015.48041.02225.02225,0,0,0,.04394-.00126,3.21,3.21,0,0,1,.10331-.48973,3.237,3.237,0,0,0,.08967-.48153C3.961,2.56727,3.93763,2.56547,3.93474,2.58087Z"/><path d="M5.44257,1.61622a.5201.5201,0,0,0-.30573-.29313.47649.47649,0,0,0-.39845-.00437.35839.35839,0,0,0-.13038.11969.38666.38666,0,0,0-.05191.16672c-.00314.01595.022.01834.02511.00251a.26219.26219,0,0,1,.09354-.12549.46832.46832,0,0,1,.129-.06736.38908.38908,0,0,1,.31389.031.39165.39165,0,0,1,.212.24c.01215.06045.012.12362.01969.18474.00337.02689.01048.05113.0154.07674a.11829.11829,0,0,1,.00183.024.02916.02916,0,0,0-.03993.01518c-.01582.03139-.00335.05655.00334.08813a.09724.09724,0,0,1-.019.08473c-.01542.0194.00956.05263.0321.03924a.13243.13243,0,0,0,.06327-.09465.15694.15694,0,0,0-.01208-.10692.26366.26366,0,0,1,.01984-.05955.39419.39419,0,0,0,.034-.09655A.45086.45086,0,0,0,5.44257,1.61622Z"/><path d="M5.24487,1.85411c-.01591-.0235.00789-.06574.00112-.09418a.09465.09465,0,0,0-.04722-.06016.32966.32966,0,0,0-.18464-.01083c-.05721.00341-.1441.01689-.19-.02563-.014-.013-.054-.08457-.07979-.06577-.03623.02639-.00838.09708.00923.128a.159.159,0,0,0,.13944.07479,2.00537,2.00537,0,0,0,.20425-.01549.09583.09583,0,0,1,.05576.00326c.01341.00893.0143.02575.02107.03875a.13811.13811,0,0,0,.05078.04868A.01487.01487,0,0,0,5.24487,1.85411Z"/><path d="M5.08875,2.05472a.11649.11649,0,0,0-.06713-.02405c-.01024-.00211-.01983-.00637-.02992-.00877-.01038-.00247-.02113-.00206-.03166-.00414a.01241.01241,0,0,0-.01252.01728.14121.14121,0,0,0,.01785.02958.1527.1527,0,0,0,.03122.02319.089.089,0,0,0,.08007.01767A.033.033,0,0,0,5.08875,2.05472Z"/><path d="M3.405,2.06783a4.18,4.18,0,0,0,.11961.51522,3.6946,3.6946,0,0,0,.13884.41908,1.10253,1.10253,0,0,1,.05159-.15253,5.14849,5.14849,0,0,1-.23415-.85181,1.69336,1.69336,0,0,0-.12107-.45763,1.55326,1.55326,0,0,1-.10639-.207.36372.36372,0,0,1-.0192-.11406c0-.03348-.007-.06544-.00531-.099a.02123.02123,0,0,0-.03857-.01321.18677.18677,0,0,0-.0397.106.4212.4212,0,0,0,.02176.11695,1.56347,1.56347,0,0,0,.10788.23953A1.59,1.59,0,0,1,3.405,2.06783Z"/><path d="M3.098,1.15482c.00435-.006.016-.00339.01461.005a1.33168,1.33168,0,0,0-.01576.28676,2.082,2.082,0,0,1,.01888.24808,1.39792,1.39792,0,0,1-.061.21293.07328.07328,0,0,0,.04285.0904c.03437.01688.06822.03.10153.04972a.03066.03066,0,0,1-.01116.05509.19839.19839,0,0,1-.22241-.09151c-.0449-.08583.00415-.17033.03274-.25187a.91172.91172,0,0,0,.00125-.30734A.50648.50648,0,0,1,3.098,1.15482Z"/><path d="M3.40226,4.2703a1.62155,1.62155,0,0,1-.0318-.2503c-.00277-.08383.00189-.16777.0053-.2515A3.60543,3.60543,0,0,0,3.3766,3.258a1.81992,1.81992,0,0,0-.02851-.208c-.00787-.03506-.0214-.0686-.03184-.103-.02252-.07414-.04085-.149-.0561-.225a1.4282,1.4282,0,0,1-.02187-.2425c-.001-.03517-.00113-.07049-.00392-.10558-.00392-.04922-.02127-.09826-.02143-.14734,0-.01512-.02347-.01695-.02354-.00173a1.29984,1.29984,0,0,1-.02052.13367c-.00492.04456-.00438.09-.0057.13476a2.07612,2.07612,0,0,0,.00133.23771,1.19084,1.19084,0,0,0,.05166.2349c.004.01352.02741.08059.04976.13613l.00159.01956c.004.04168.00734.08337.01155.125a2.112,2.112,0,0,1,.00955.248,3.94844,3.94844,0,0,0,.00221.511.93277.93277,0,0,0,.06641.27793A.02378.02378,0,0,0,3.40226,4.2703Z"/><path d="M4.26558,5.27025l-.00572.00167-.02729.00916c-.01767.00538-.03539.0097-.05337.01387a.52272.52272,0,0,1-.12017.016.44644.44644,0,0,1-.21607-.0586.873.873,0,0,1-.30665-.345c-.02353-.04207-.04432-.08579-.06437-.12966L3.4404,4.70728C3.43,4.6838,3.41634,4.66174,3.40767,4.6375c-.006-.01692-.0315-.00635-.02547.0105.00794.0222.01115.04579.01749.06848.00694.02484.01468.04953.02249.07411q.02122.06679.04654.13212a.9309.9309,0,0,0,.13134.241.59922.59922,0,0,0,.43343.24273.53053.53053,0,0,0,.15133-.01424A.34589.34589,0,0,0,4.256,5.36571c.01282-.00643.0251-.01394.03739-.02135a.13836.13836,0,0,0,.02469-.0213A.13842.13842,0,0,1,4.26558,5.27025Z"/><path d="M4.00056,6.6473a.20546.20546,0,0,0-.05928-.0619.34438.34438,0,0,0-.06251-.04356c-.01541-.007-.02654.01071-.02243.02383a.33263.33263,0,0,0,.03494.06535.20087.20087,0,0,0,.05083.0641C3.972,6.71667,4.01956,6.68217,4.00056,6.6473Z"/><text x="0" y="25" fill="#000000" font-size="5px" font-weight="bold" font-family="'Helvetica Neue', Helvetica, Arial-Unicode, Arial, Sans-serif">Created by Alice Noir</text><text x="0" y="30" fill="#000000" font-size="5px" font-weight="bold" font-family="'Helvetica Neue', Helvetica, Arial-Unicode, Arial, Sans-serif">from the Noun Project</text></svg>