<svg xmlns="http://www.w3.org/2000/svg" data-name="Layer 1" viewBox="0 0 10 12.5" x="0px" y="0px"><title>KAMASUTRA</title><path d="M3.65069,3.69685c-.00114-.01457-.0235-.01091-.02237.00354.00353.04525-.04725.09291-.0813.1149a.71117.71117,0,0,1-.1118.0525.433.433,0,0,0-.11513.06052.498.498,0,0,0-.07485.09024.50038.50038,0,0,0-.10225.211.463.463,0,0,0-.00459.13416.74644.74644,0,0,0,.037.14027.0188.0188,0,0,0,.03567-.0057c.00012-.04755.006-.09683.00947-.14458a1.15832,1.15832,0,0,1,.01383-.13825.26719.26719,0,0,1,.12333-.214,1.1219,1.1219,0,0,0,.22081-.12.25431.25431,0,0,0,.06364-.08165A.18481.18481,0,0,0,3.65069,3.69685Z"/><path d="M3.16878,4.60491c-.02093.06657-.049.13058-.06915.19771-.02035.0679-.04184.13606-.05565.20565a4.25666,4.25666,0,0,0-.05907.42615c-.01357.14284-.01707.28662-.01978.43-.001.05163.01728.13805-.04047.163a1.37993,1.37993,0,0,0-.1485.05107c-.04944.02816-.09181.06824-.13995.09893A.49415.49415,0,0,1,2.469,6.2394a.02092.02092,0,0,0-.004.03994c.10367.04415.20089-.05433.28512-.09869a.79769.79769,0,0,1,.15818-.06524.17018.17018,0,0,0,.12337-.08523A.58811.58811,0,0,0,3.04827,5.824c.00284-.07853.00841-.15654.01669-.23467.01628-.15358.03144-.30667.05423-.4595.01277-.08563.02486-.1708.035-.25678.01028-.087.01631-.178.0329-.26384C3.18915,4.59861,3.172,4.59468,3.16878,4.60491Z"/><path d="M3.83036,5.42328c-.03164.00866-.06285.01622-.09362.0251a.58855.58855,0,0,0-.02141-.25907c-.02329-.08159-.05041-.16182-.07155-.244-.01073-.04175-.02094-.08359-.03128-.12543-.00719-.02907-.01927-.05775-.02865-.08668.00792-.04913.01279-.09874.02384-.14764.0156-.069.0333-.13615.04381-.20624.00358-.02383-.0315-.03069-.04009-.0093a1.76259,1.76259,0,0,0-.06213.202c-.01644.06108-.04266.11942-.05707.18072-.016.06817-.02509.13764-.04061.206-.01468.06461-.03533.12723-.05.19184-.02931.12942-.03739.25971-.05619.39058-.00837.05828-.02057.116-.03251.17361a.708.708,0,0,1-.03689.11137c-.02343.03575-.04517.07248-.06522.10967-.02456.04554-.0469.09207-.06762.1393l-.009.007a.46428.46428,0,0,1-.20534.16322c-.0383.01254-.07865.01516-.11638.03014a.4314.4314,0,0,0-.10272.06279c-.00866.00664.00179.01871.01056.0129.04368-.02891.10007-.012.14942-.01389a.31791.31791,0,0,0,.12874-.02939.2388.2388,0,0,0,.07827-.063q-.01953.05621-.03668.11328a.72337.72337,0,0,0-.02921.46639c.01241.03037.06615.02471.06595-.01055a1.23282,1.23282,0,0,1,.00985-.2209A1.74378,1.74378,0,0,1,3.141,6.37158a2.10305,2.10305,0,0,1,.15605-.38373,1.30845,1.30845,0,0,1,.23181-.30921,1.5002,1.5002,0,0,1,.13983-.11989.74622.74622,0,0,1,.17-.10693C3.85428,5.44571,3.84693,5.41875,3.83036,5.42328Zm-.354.17036a.93813.93813,0,0,0-.07482.07158.5933.5933,0,0,0,.02325-.07537c.0299-.12827.03208-.26139.05916-.39057.01391-.06637.02213-.13341.03606-.19966.00706-.03358.01554-.06671.02427-.09976l.00041.004A1.25441,1.25441,0,0,0,3.59,5.11446c.01952.06774.04143.13509.05719.20386.01035.04517.0297.13288-.01452.16711l-.00454.005A.80285.80285,0,0,0,3.4764,5.59364Z"/><path d="M5.33039,4.016c-.02972-.08439-.14532-.13767-.222-.16969a1.17879,1.17879,0,0,0-.301-.07412.90786.90786,0,0,1-.30821-.07212.40423.40423,0,0,0-.26242-.07529.011.011,0,0,0-.00209.02092,1.02506,1.02506,0,0,1,.132.05146c.04043.02288.06546.061.10375.08535a.33943.33943,0,0,0,.12837.03417c.05417.00952.1079.02073.16168.03221a1.80059,1.80059,0,0,1,.28947.07677.61135.61135,0,0,1,.12046.06281.85061.85061,0,0,0,.11062.08C5.31407,4.08411,5.34056,4.04489,5.33039,4.016Z"/><path d="M5.01049,3.99758a.68944.68944,0,0,0-.25526.13975,1.05482,1.05482,0,0,1-.11578.02029c-.03759.0036-.07469.00181-.112.00529-.00594-.0323-.0131-.06443-.01941-.09643a.01754.01754,0,0,0-.03463.00547.65888.65888,0,0,1-.00254.19647A.89383.89383,0,0,0,4.4354,4.452a2.20928,2.20928,0,0,0,.03854.33112c-.00085.02848-.00008.057.00191.08563a.41322.41322,0,0,0,.03705.1712.0324.0324,0,0,0,.06133-.01808c-.003-.05338-.01914-.10426-.02491-.1574A1.03361,1.03361,0,0,1,4.54543,4.714a.70948.70948,0,0,1,.09971-.29541,1.0493,1.0493,0,0,1,.37738-.39416C5.03487,4.0164,5.02478,3.99349,5.01049,3.99758Zm-.44877.3831a.58051.58051,0,0,0-.0475.131.59107.59107,0,0,1,.00543-.07511.94106.94106,0,0,0,.01985-.17781L4.537,4.22776a.35155.35155,0,0,0,.1206.00865A.82481.82481,0,0,0,4.56172,4.38068Z"/><path d="M6.24446,5.12078c-.00869.01143-.01157.02593-.02068.03734a.12286.12286,0,0,1-.0425.0314.35352.35352,0,0,1-.07381.0288.48661.48661,0,0,0-.187.01164c-.09934.02791-.18443.09042-.28239.12285a.73333.73333,0,0,1-.58332-.06359c-.01779-.01007-.03512-.02086-.05228-.03191a.4562.4562,0,0,0,.09726-.15308.75526.75526,0,0,0,.04378-.15472l.00457.01232a.90512.90512,0,0,0,.129.22254.55123.55123,0,0,0,.18622.18232c.028.01166.04736-.01856.04014-.04265a.66086.66086,0,0,0-.12753-.18134.99929.99929,0,0,1-.12081-.19641.65149.65149,0,0,1-.05737-.20986.46081.46081,0,0,1,.02843-.23135c.00662-.01317-.016-.02539-.02309-.0122-.019.03554-.04265.06736-.05854.10469a.43679.43679,0,0,0-.03019.11272.45218.45218,0,0,0-.00164.10446c-.00856.023-.01721.046-.02475.06918-.01682.05177-.03528.10313-.05586.15351a.50357.50357,0,0,1-.06115.119.47923.47923,0,0,1-.04909.04692,1.32371,1.32371,0,0,0-.12512-.078q-.024-.01266-.04854-.023c.00053-.0413.0042-.0832.00184-.12415a1.68154,1.68154,0,0,1-.01657-.17879c.0046-.08941.09893-.14229.16171-.1915a2.88492,2.88492,0,0,0,.23029-.2062.926.926,0,0,0,.20191-.23715c.02069-.04325-.03714-.07254-.06976-.04986a.64631.64631,0,0,0-.11293.11939c-.03594.04208-.07032.08546-.10656.1273a1.693,1.693,0,0,1-.24522.22454.28988.28988,0,0,0-.13791.21385.85.85,0,0,0,.02349.17306,1.15333,1.15333,0,0,0,.03283.11546.51624.51624,0,0,0-.50967.09958l-.00016-.00615a.39532.39532,0,0,0-.009-.0755c-.00479-.02124-.02315-.048-.02545-.06807-.002-.01728-.02792-.01283-.02646.00418a.32458.32458,0,0,1-.01388.058A.78728.78728,0,0,0,4.12,5.1788a.58456.58456,0,0,0-.00055.1029.4742.4742,0,0,0-.03792.06807.42826.42826,0,0,0,.119.52857c.01061.00773.02615-.00773.01624-.01742a.40679.40679,0,0,1-.0563-.46944.43552.43552,0,0,1,.42988-.2362c.1834.01983.31535.16892.47706.24259a.829.829,0,0,0,.52529.04376A2.45345,2.45345,0,0,0,5.8789,5.329a.83824.83824,0,0,1,.16418-.03966.55483.55483,0,0,1,.17567.01533c.03228.00554.03913-.04073.01228-.053l-.01492-.0063a.13826.13826,0,0,0,.08655-.09219C6.311,5.11058,6.27238,5.08405,6.24446,5.12078Z"/><path d="M5.75551,5.11381c-.0051-.06185-.01562-.12375-.02645-.18484-.0217-.12248-.04581-.24485-.07532-.3657A2.86059,2.86059,0,0,0,5.55052,4.21c-.02966-.0768-.07525-.17986-.17567-.14853-.01246.00389-.00569.02248.00622.02111.07127-.00822.086.08227.09526.13258.00975.053.02152.10551.03391.158.02424.10263.04822.20529.07079.3083s.04178.20686.0613.31061c.01.05326.01913.1066.03124.15943a.42827.42827,0,0,0,.04438.13471.02016.02016,0,0,0,.03432-.00571A.4506.4506,0,0,0,5.75551,5.11381Z"/><path d="M5.43246,7.09468c-.10138-.091-.25306-.06883-.37453-.11036a1.50613,1.50613,0,0,0-.44975-.13326c-.32582-.00724-.64833.05258-.97259.07087a2.07534,2.07534,0,0,1-.26267-.00209,1.83633,1.83633,0,0,1-.26217-.02706.01788.01788,0,0,0-.012.03217.82489.82489,0,0,0,.42711.11116,4.25532,4.25532,0,0,0,.459-.03365c.16639-.01784.33315-.03.50022-.0393.08109-.0045.16437-.012.24555-.00961a.5238.5238,0,0,1,.22.06508.74393.74393,0,0,0,.22085.06848.44314.44314,0,0,1,.21709.0696C5.42816,7.187,5.468,7.12655,5.43246,7.09468Z"/><path d="M5.50307,6.93448a.8357.8357,0,0,0-.20331-.11011A.24634.24634,0,0,1,5.21858,6.765c-.02424-.02934-.03837-.06548-.06189-.09537a.19431.19431,0,0,0-.21324-.05628.80558.80558,0,0,1-.11554.02681.38885.38885,0,0,1-.15261-.02455c-.08743-.02787-.17326-.05914-.26208-.08267a2.24214,2.24214,0,0,0-.54781-.07651,1.72078,1.72078,0,0,0-.18318.00664.7485.7485,0,0,0,.17966-.17616.83664.83664,0,0,1,.09564-.12373A.52782.52782,0,0,1,4.056,6.09243c.05618-.0331.15929-.08866.14864-.16735a.0362.0362,0,0,0-.05822-.02219c-.02585.02216-.03664.05411-.0651.07567a.58135.58135,0,0,1-.09472.05306.44882.44882,0,0,0-.09816.05826.58332.58332,0,0,0-.09245.11547.92949.92949,0,0,1-.17883.19737,1.04763,1.04763,0,0,1-.13949.10017c-.019.00548-.03789.01132-.05651.01782a.41674.41674,0,0,0-.139.06358.01076.01076,0,0,0,.00568.01882.49229.49229,0,0,0,.10642-.01579c.04447-.00748.08939-.01358.13423-.01838.08609-.00922.17276-.01638.25934-.01784a2.08839,2.08839,0,0,1,.50707.05717q.12333.02859.24356.06837a.94546.94546,0,0,0,.24743.06534.37968.37968,0,0,0,.11293-.01188.50206.50206,0,0,1,.11955-.02655c.07134,0,.09259.09527.13461.1387.10689.1105.32469.10645.37356.27338a.01631.01631,0,0,0,.0311.00311A.15769.15769,0,0,0,5.50307,6.93448Z"/><path d="M6.03949,6.62665a.68917.68917,0,0,1-.06583-.11432.68856.68856,0,0,1-.0316-.13767,1.44261,1.44261,0,0,1-.00407-.323c.00418-.0585.00994-.1167.01588-.175a.55132.55132,0,0,0,.00258-.165.152.152,0,0,0-.15653-.13806.01048.01048,0,0,0-.002.02c.11312.036.09308.17863.07967.26736l-.00406.02969-.00167.00065a.332.332,0,0,1-.19421.05188.30767.30767,0,0,1-.09786-.036.29726.29726,0,0,1-.09308-.06191c-.00918-.01148-.02591.00257-.01753.01434.00757.01064.01417.0212.02058.03155a2.37938,2.37938,0,0,0-.43456-.04763,1.06133,1.06133,0,0,1-.44634-.11063.0072.0072,0,0,0-.00831.01174.77065.77065,0,0,0,.4124.16931c.08136.01.1634.0156.24558.0191.01036.009.01995.01918.0296.02866a1.01569,1.01569,0,0,1,.08291.09321.649.649,0,0,1,.07957.11243.22.22,0,0,1,.02158.15471.01432.01432,0,0,0,.02683.01.22836.22836,0,0,0,.02512-.08143.276.276,0,0,0-.00769-.07986.48425.48425,0,0,0-.07276-.15621.63713.63713,0,0,0-.06-.0775c.04666.0011.09329.00191.13977.0028a.16906.16906,0,0,0,.02962.02743.28771.28771,0,0,0,.11743.04746.25509.25509,0,0,0,.19405-.03711c-.0054.06985-.007.14-.00721.21009a.86591.86591,0,0,0,.02574.25672.34767.34767,0,0,0,.133.20135C6.02769,6.65227,6.04852,6.64152,6.03949,6.62665Z"/><path d="M5.09893,6.26721a.35185.35185,0,0,0-.17826-.0905A1.85946,1.85946,0,0,1,4.70346,6.111c-.06812-.02764-.13537-.05894-.20083-.09237a2.14845,2.14845,0,0,1-.21022-.11425.01042.01042,0,0,0-.012.017c.06479.04542.12292.10085.1878.14673l.00406.00283A.64531.64531,0,0,0,4.31239,6.08a.19664.19664,0,0,1-.09441.00321.25532.25532,0,0,0-.068-.01458c-.05413-.00048-.07955.03427-.115.06849a.00742.00742,0,0,0,.00939.01148.16168.16168,0,0,1,.0723-.03229c.03021-.003.05225.01743.07883.02727a.25055.25055,0,0,0,.13439.00142.82475.82475,0,0,1,.16066-.01324c.03041.00078.06124.00613.09191.00982.02349.0133.04753.02566.07229.03677a1.30472,1.30472,0,0,0,.20825.07022A2.04923,2.04923,0,0,0,5.0792,6.304.02281.02281,0,0,0,5.09893,6.26721Z"/><path d="M5.43257,6.36514c-.06581-.00143-.1299.01094-.19575.01522a1.43172,1.43172,0,0,1-.20107-.0023,2.68842,2.68842,0,0,1-.40588-.06512,1.02791,1.02791,0,0,0-.38457-.04756,1.06467,1.06467,0,0,0-.35666.1587c-.0077.00429-.00269.01643.00564.01273a.96.96,0,0,1,.385-.095,1.79037,1.79037,0,0,1,.397.05373,2.74075,2.74075,0,0,0,.39066.06721.72172.72172,0,0,0,.37515-.0383C5.46738,6.41139,5.46592,6.36587,5.43257,6.36514Z"/><path d="M7.4185,6.51071a.02175.02175,0,0,0-.01472-.01778c-.05178-.02-.10528-.03349-.15863-.04854-.05411-.01526-.10658-.03573-.16069-.051a1.79471,1.79471,0,0,0-.3345-.043c-.1131-.00973-.22558-.02211-.33905-.027a1.33485,1.33485,0,0,0-.16793.00007c-.02049.0017-.04089.00467-.0612.00835A.60521.60521,0,0,0,6.2376,6.147c.01352-.07812.025-.157.03366-.23576a3.1094,3.1094,0,0,0,.00428-.4562c-.00051-.01355-.02217-.01236-.02337.00067-.01381.15-.04134.29826-.06016.44761-.00924.07336-.019.14658-.031.21955a.7324.7324,0,0,0-.01487.21609c-.02695.00591-.05373.01268-.08029.01934a.01415.01415,0,0,0,.0008.02792c.05443.00468.108.014.16228.0188.05747.00511.11533.00561.173.00812q.17.00739.34012.01637a1.46387,1.46387,0,0,1,.33226.03716,1.41918,1.41918,0,0,0,.29129.07017.46266.46266,0,0,0,.0722.05969.01757.01757,0,0,0,.02709-.01682A.08611.08611,0,0,0,7.4185,6.51071Z"/><path d="M7.11282,6.66029a.56549.56549,0,0,0-.2299-.10191.57769.57769,0,0,0-.24823-.00985c-.08364.015-.16292.04312-.24475.065-.0393.01053-.079.02038-.119.028a.90775.90775,0,0,1-.13163.02323c-.00762.00027-.00606.01115.00035.01243a.49089.49089,0,0,0,.11487.0175.761.761,0,0,0,.117-.013c.08041-.01471.16-.03388.2403-.04888a.7077.7077,0,0,1,.2382-.013c.08734.01417.16021.07.2456.08631C7.12332,6.71147,7.12948,6.67514,7.11282,6.66029Z"/><path d="M7.3,6.78581a.27247.27247,0,0,1-.08795-.03154c-.02207-.01669-.03462-.034-.06412-.0285-.01082.002-.01142.02047.00057.02018.00967-.00023.01847.0261.02359.03336a.11643.11643,0,0,0,.03774.03351.0934.0934,0,0,0,.09125.00844A.0194.0194,0,0,0,7.3,6.78581Z"/><path d="M7.41676,6.72615c-.0274-.00963-.04133-.04039-.07076-.0503a.341.341,0,0,1-.07745-.02921.32987.32987,0,0,0-.12574-.05548.01114.01114,0,0,0-.005.02144c.052.0167.07978.07982.1292.10466.02619.01316.05634.01222.0827.02443a.11574.11574,0,0,0,.06352.01954A.01835.01835,0,0,0,7.41676,6.72615Z"/><path d="M7.51353,6.68276a.61232.61232,0,0,1-.12782-.07424A.30952.30952,0,0,0,7.25358,6.573a.01179.01179,0,0,0-.00235.02345c.09877.012.15759.12787.25887.1205A.01788.01788,0,0,0,7.51353,6.68276Z"/><path d="M7.5426,6.48911a.48435.48435,0,0,0-.252-.14914C7.24,6.32423,7.191,6.30519,7.139,6.29382c-.05824-.01275-.11669-.02454-.17506-.03669-.11621-.02419-.23248-.05045-.35062-.06323a1.02881,1.02881,0,0,0-.15743-.00668.45724.45724,0,0,0-.0472.00478,1.41087,1.41087,0,0,0,.00838-.51357c-.00161-.01485-.02683-.01459-.02656.00076.00306.16988-.03285.33751-.04381.50654a.02924.02924,0,0,0,.00438.01746l-.073.01741a.00834.00834,0,0,0,.0026.01647,1.11219,1.11219,0,0,1,.32659.01755c.10924.01653.21739.04074.3257.06233l.16275.0322c.05024.0099.10256.01574.152.029a.55026.55026,0,0,1,.14041.065c.04148.0251.07721.06049.1193.08366A.02617.02617,0,0,0,7.5426,6.48911Z"/><path d="M4.10192,4.34838a.013.013,0,0,0-.024.00073c-.01124.04733-.01969.0944-.02849.14226-.00726.03946-.02639.07507-.033.11371a.03462.03462,0,0,0,.048.03479C4.161,4.602,4.12448,4.42049,4.10192,4.34838Z"/><path d="M4.25859,3.02661a.24422.24422,0,0,0-.11364-.14713.53088.53088,0,0,0-.38243-.01767.426.426,0,0,0-.16692.06877.272.272,0,0,0-.10118.15911.546.546,0,0,0,.10021.42837c.00548.00715.0191.00178.01671-.00749a.98426.98426,0,0,1-.03893-.36883A.2643.2643,0,0,1,3.786,2.93278a.4127.4127,0,0,1,.31626.018.27953.27953,0,0,1,.09662.11868c.02031.0496.02229.104.03892.15467.00808.02462.03961.0124.044-.007A.37042.37042,0,0,0,4.25859,3.02661Z"/><path d="M4.17477,3.63251l-.0005-.004a1.088,1.088,0,0,0,.01942-.12834A.00788.00788,0,0,0,4.178,3.49862a.72959.72959,0,0,1-.02344.1067.34349.34349,0,0,1-.04807.0787.42772.42772,0,0,1-.0639.07264.40914.40914,0,0,1-.09028.01473.2579.2579,0,0,1-.10046-.02155.328.328,0,0,1-.07507-.07839.61356.61356,0,0,1-.078-.103.00674.00674,0,0,0-.01231.00545c.03.08587.05568.21371.15345.24928.05485.02.18342.04108.22571-.01716a.10592.10592,0,0,0,.02258-.00776l.00055-.0003a.45209.45209,0,0,0-.031.1524c-.00023.01683.02339.03017.03383.01265a.63574.63574,0,0,0,.07119-.25332.3286.3286,0,0,0,.00876-.05854Z"/><path d="M4.15915,3.15811a.21009.21009,0,0,0-.1712-.05867c-.03019.007-.05635.02255-.08745.02666a.29388.29388,0,0,1-.0968.00555c-.011-.044-.04077-.08984-.07721-.09551a.02139.02139,0,0,0-.02321.019c-.00178.02611.01329.04159.02248.06526.015.03867.00075.054-.02071.08373a.88137.88137,0,0,0-.07008.16021c-.00564.01214.01389.01936.01951.00726a.40936.40936,0,0,1,.08916-.10294A.20074.20074,0,0,0,3.806,3.18631l.0018-.01086a.20182.20182,0,0,0,.10558.02159c.038-.00066.06983-.02131.107-.0253a.41473.41473,0,0,1,.12807.01479C4.16486,3.19,4.1705,3.16683,4.15915,3.15811Z"/><path d="M6.96941,4.67645a.31871.31871,0,0,0-.02264-.07366.40349.40349,0,0,0-.15884-.17746.4187.4187,0,0,0-.59479.53137.01068.01068,0,0,0,.02023-.006A.43829.43829,0,0,1,6.3839,4.522a.32566.32566,0,0,1,.40918.02141.544.544,0,0,1,.09136.4842,3.5255,3.5255,0,0,1-.17549.54577.69406.69406,0,0,0-.0321.14639.79472.79472,0,0,0,.005.128.46578.46578,0,0,0,.07121.24344c.01556.02171.0447-.00417.0314-.02569a.34688.34688,0,0,1-.04953-.28494c.03053-.09621.06328-.19165.099-.2861a2.451,2.451,0,0,0,.13366-.60987L6.973,4.82939a.72389.72389,0,0,1,.014.08283,1.09661,1.09661,0,0,1-.02206.31615,3.44525,3.44525,0,0,1-.091.34442.50553.50553,0,0,0-.03913.30038c.00372.01107.02282.00557.0198-.00584a.31133.31133,0,0,1,.0477-.18381c.02278-.05274.04523-.10554.06565-.15925a1.467,1.467,0,0,0,.09254-.34889A.795.795,0,0,0,6.96941,4.67645Z"/><path d="M6.7413,4.87405c-.03873-.0524-.102-.07538-.14581-.122a.2454.2454,0,0,1-.07132-.18516.00883.00883,0,0,0-.017-.00394.28.28,0,0,0-.00907.14991c-.03638.05252-.09851.08219-.13744.13378-.04076.054-.06349.11875-.09922.1757a.00772.00772,0,0,0,.00934.01142c.07718-.02821.09921-.10444.15079-.16112.02892-.03179.07441-.05927.10261-.09435a.28806.28806,0,0,0,.08014.0875.30148.30148,0,0,1,.12236.15552l.001.00395a.14521.14521,0,0,0-.05846.00287.09036.09036,0,0,0-.06169.0308l.0015.00874a.17535.17535,0,0,0,.06182.01739.15778.15778,0,0,0,.06718.00856.61166.61166,0,0,1-.01615.15827c-.00278.01322.01971.01859.02322.00538A.46125.46125,0,0,0,6.7413,4.87405Z"/><path d="M6.65882,5.35216c-.02654.00509-.04876.01888-.07622.02173a.20556.20556,0,0,1-.08211-.00653A.25441.25441,0,0,1,6.35715,5.262c-.00924-.01434-.03244.00054-.02533.01557a.35567.35567,0,0,0,.09472.13161A.1324.1324,0,0,0,6.387,5.475a.436.436,0,0,0,.00482.13473c.00017.007.0107.00847.01111.00111a.28965.28965,0,0,1,.03368-.10963c.01116-.02237.03115-.041.04157-.06321l.01352.0044c.062.01735.16215.00679.191-.061A.02206.02206,0,0,0,6.65882,5.35216Z"/><path d="M6.57937,5.256A.11231.11231,0,0,0,6.537,5.2579a.12106.12106,0,0,1-.0392.00705c-.00909-.00144-.017.01158-.00989.01844a.08993.08993,0,0,0,.04822.03269.06031.06031,0,0,0,.06044-.02234A.02426.02426,0,0,0,6.57937,5.256Z"/><path d="M6.454,5.06372a.06811.06811,0,0,0-.01557-.02483.06.06,0,0,0-.02983-.01178.06672.06672,0,0,0-.02808.00222.3487.3487,0,0,1-.03346.01341.01317.01317,0,0,0,.00411.026c.02365-.00393.04244.0167.0637.02274a.02414.02414,0,0,0,.02937.003A.02446.02446,0,0,0,6.454,5.06372Z"/><path d="M3.90978,3.36263a.09021.09021,0,0,0-.093.0502.01635.01635,0,0,0,.01774.02168c.01283-.00191.02542-.00668.03831-.009a.11164.11164,0,0,0,.04537-.01254A.02954.02954,0,0,0,3.90978,3.36263Z"/><path d="M4.19739,3.34769a.06072.06072,0,0,0-.05778-.00639.29113.29113,0,0,0-.04928.027.01271.01271,0,0,0,.01029.02324.08575.08575,0,0,1,.04663.001.08266.08266,0,0,0,.04568-.00024A.02611.02611,0,0,0,4.19739,3.34769Z"/><path d="M4.04869,3.633a.08581.08581,0,0,0-.03938,0c-.0125.003-.025.00706-.03761.00955a.01309.01309,0,0,0-.00546.02333.08794.08794,0,0,0,.0471.01763.05608.05608,0,0,0,.04824-.02226C4.07164,3.6504,4.0603,3.63508,4.04869,3.633Z"/><text x="0" y="25" fill="#000000" font-size="5px" font-weight="bold" font-family="'Helvetica Neue', Helvetica, Arial-Unicode, Arial, Sans-serif">Created by Alice Noir</text><text x="0" y="30" fill="#000000" font-size="5px" font-weight="bold" font-family="'Helvetica Neue', Helvetica, Arial-Unicode, Arial, Sans-serif">from the Noun Project</text></svg>