<svg xmlns="http://www.w3.org/2000/svg" xmlns:xlink="http://www.w3.org/1999/xlink" version="1.1" x="0px" y="0px" viewBox="0 0 326 248.80124999999998" style="enable-background:new 0 0 326 199.041;" xml:space="preserve"><g><path d="M48.483,33.703C63.162-2.752,42.383-2.069,36.901,1.74c-5.479,3.809-4.235,9.196-4.235,9.196s-4.618-3.044-10.097,0.763   C17.086,15.507,9.198,34.745,48.483,33.703z"/><ellipse transform="matrix(0.457 -0.8895 0.8895 0.457 8.287 100.9408)" cx="86.818" cy="43.683" rx="22.495" ry="22.494"/><path d="M322,119.707h-1.368c0.1-0.772,0.171-1.536,0.179-2.28c0.022-3.501-1.209-6.824-3.942-9.073   c-2.721-2.248-6.634-3.363-11.74-3.365c-0.504,0-1.012,0.014-1.528,0.033c-1.343,0.053-2.657,0.081-3.948,0.081   c-16.58-0.011-29.299-4.421-42.686-11.6c-13.373-7.176-27.327-17.161-45.941-28.042c-5.818-3.408-11.891-4.918-18.046-4.911   c-5.028,0.021-10.098,1.002-15.223,2.702c-9.427-7.874-18.802-13.005-32.262-18.352c-14.424-5.631-25.965,0.807-29.863,8.695   c-2.789,5.642-0.175,12.654,4.997,17.745l7.312-14.358c1.715-3.369,5.133-5.463,8.918-5.463c1.564,0,3.129,0.376,4.531,1.09   c2.38,1.211,4.145,3.277,4.971,5.818c0.827,2.541,0.615,5.252-0.6,7.632l-8.008,15.725c1.13,0.631,2.273,1.277,3.432,1.94   c-1.936,1.347-3.883,2.716-5.842,4.099c-0.346,0.245-0.694,0.494-1.041,0.74c-1.168,0.83-2.34,1.662-3.517,2.499l13.194-25.911   c2.007-3.939,0.438-8.754-3.498-10.761c-3.938-2.004-8.755-0.436-10.76,3.501l-26.343,51.731c-1.079,0.663-2.159,1.321-3.244,1.963   l3.661-7.189c-0.631-0.012-1.273-0.028-1.884-0.028c-0.047,0-0.093,0-0.14,0c-6.526,0-11.771,0.759-15.269,3.036   c-3.496,2.279-5.67,6.047-6.061,13.195c-0.017,0.328-0.024,0.655-0.025,0.981c-0.981,0.404-1.966,0.785-2.952,1.158   c-1.152,0.437-2.307,0.854-3.464,1.246v-4.612c0-2.209-1.791-4-4-4h-25.5c-2.209,0-4,1.791-4,4v14c0,2.209,1.791,4,4,4h9.818   c-0.003,0.079-0.018,0.155-0.018,0.235c0.002,1.737,0.686,3.344,1.744,4.765H32v-88c0-2.209-1.791-4-4-4H4c-2.209,0-4,1.791-4,4   v140.668c0,2.209,1.791,4,4,4h24c2.209,0,4-1.791,4-4v-6h262v6c0,2.209,1.791,4,4,4h24c2.209,0,4-1.791,4-4v-71.334   C326,121.498,324.209,119.707,322,119.707z M59.488,140.292c-0.876-1.073-1.189-1.956-1.187-2.684   c-0.004-0.98,0.572-2.278,2.795-3.917c2.193-1.604,5.867-3.316,11.168-4.924c23.464-7.157,45.186-23.381,65.39-37.681   c20.175-14.35,38.881-26.616,55.325-26.539c5.516,0.007,10.8,1.314,16.026,4.366c18.447,10.775,32.361,20.747,46.068,28.113   c13.693,7.365,27.264,12.086,44.578,12.075c1.348,0,2.717-0.028,4.11-0.083c0.478-0.021,0.931-0.031,1.366-0.031   c4.55-0.002,7.479,1.017,9.186,2.442c1.693,1.429,2.474,3.323,2.497,5.996c0.09,6.745-6.016,17.457-15.402,26.278   c-9.347,8.883-21.826,16.007-33.864,16.819c-0.46,0.033-0.952,0.048-1.474,0.048c-7.552,0.028-20.299-3.528-34.893-7.156   c-14.631-3.612-31.242-7.267-47.196-7.272c-10.201,0.002-20.162,1.502-29.124,5.555c-7.612,3.455-18.602,5.001-30.42,4.99   c-15.459,0.005-32.36-2.596-45.254-6.477c-6.442-1.935-11.889-4.204-15.584-6.528C61.753,142.526,60.355,141.352,59.488,140.292z"/><ellipse transform="matrix(0.993 -0.1184 0.1184 0.993 -10.0907 8.1847)" cx="63.862" cy="89.046" rx="22.492" ry="22.496"/><path d="M203.726,51.728c-2.61,0.022-4.417,1.506-4.503,1.558c-0.433,0.344-0.504,0.974-0.16,1.405   c0.344,0.433,0.974,0.504,1.405,0.163v-0.003c0,0,0.061-0.05,0.224-0.155c0.484-0.322,1.697-0.976,3.034-0.967   c1.252,0.02,2.664,0.465,4.178,2.516c0.196,0.27,0.501,0.413,0.811,0.413c0.204,0,0.409-0.062,0.587-0.19   c0.448-0.324,0.547-0.95,0.223-1.395C207.748,52.59,205.564,51.709,203.726,51.728z"/><path d="M197.889,48.661c-0.452,0.32-0.558,0.943-0.235,1.396c0.32,0.45,0.943,0.556,1.396,0.235l-0.003-0.002   c0,0,0.108-0.075,0.354-0.221c0.737-0.435,2.548-1.319,4.632-1.314c2.188,0.024,4.714,0.859,7.15,4.459   c0.192,0.289,0.51,0.444,0.833,0.444c0.191,0,0.384-0.054,0.554-0.167c0.459-0.308,0.584-0.931,0.277-1.389   c-2.693-4.067-6.039-5.372-8.814-5.347C200.516,46.772,197.974,48.611,197.889,48.661z"/><path d="M277.726,91.228c-2.609,0.022-4.418,1.506-4.503,1.558c-0.432,0.345-0.504,0.976-0.159,1.407   c0.343,0.432,0.973,0.504,1.405,0.159c0,0,0.061-0.05,0.223-0.155c0.483-0.324,1.696-0.977,3.034-0.968   c1.252,0.02,2.665,0.467,4.179,2.517c0.195,0.269,0.501,0.412,0.81,0.412c0.203,0,0.409-0.062,0.586-0.189   c0.447-0.325,0.547-0.951,0.223-1.395C281.747,92.09,279.565,91.209,277.726,91.228z"/><path d="M286.016,93.16c0.19,0,0.384-0.055,0.555-0.168c0.458-0.308,0.582-0.93,0.274-1.388c-2.692-4.069-6.038-5.372-8.813-5.349   c-3.516,0.016-6.058,1.855-6.143,1.905c-0.452,0.32-0.557,0.944-0.236,1.395c0.321,0.451,0.945,0.557,1.398,0.235h-0.003   c0,0,0.107-0.076,0.352-0.221c0.74-0.436,2.549-1.319,4.633-1.313c2.188,0.022,4.713,0.857,7.15,4.458   C285.374,93.004,285.692,93.16,286.016,93.16z"/></g><text x="0" y="214.041" fill="#000000" font-size="5px" font-weight="bold" font-family="'Helvetica Neue', Helvetica, Arial-Unicode, Arial, Sans-serif">Created by Gan Khoon Lay</text><text x="0" y="219.041" fill="#000000" font-size="5px" font-weight="bold" font-family="'Helvetica Neue', Helvetica, Arial-Unicode, Arial, Sans-serif">from the Noun Project</text></svg>